<svg width="660" height="36" viewBox="0 0 660 36" fill="none" xmlns="http://www.w3.org/2000/svg">
<rect width="660" height="36" rx="10" fill="#454545"/>
<path d="M26.1867 21.11C26.1867 20.8113 26.07 20.5827 25.8367 20.424C25.6034 20.256 25.314 20.1253 24.9687 20.032C24.6234 19.9293 24.2454 19.836 23.8347 19.752C23.4334 19.668 23.06 19.556 22.7147 19.416C22.3694 19.276 22.08 19.0893 21.8467 18.856C21.6134 18.6133 21.4967 18.2773 21.4967 17.848C21.4967 17.4933 21.5714 17.19 21.7207 16.938C21.8794 16.686 22.0847 16.4807 22.3367 16.322C22.5887 16.154 22.8827 16.0327 23.2187 15.958C23.5547 15.874 23.9047 15.832 24.2687 15.832C24.922 15.832 25.482 15.916 25.9487 16.084C26.4247 16.2427 26.8027 16.4107 27.0827 16.588L26.6347 17.47C26.3267 17.302 25.9907 17.1433 25.6267 16.994C25.272 16.8353 24.824 16.756 24.2827 16.756C24.0774 16.756 23.872 16.7793 23.6667 16.826C23.4707 16.8633 23.2887 16.924 23.1207 17.008C22.962 17.092 22.8314 17.204 22.7287 17.344C22.6354 17.4747 22.5887 17.638 22.5887 17.834C22.5887 18.0767 22.7054 18.2633 22.9387 18.394C23.172 18.5247 23.4614 18.6367 23.8067 18.73C24.152 18.814 24.5254 18.898 24.9267 18.982C25.3374 19.0567 25.7154 19.1687 26.0607 19.318C26.406 19.4673 26.6954 19.668 26.9287 19.92C27.162 20.172 27.2787 20.5127 27.2787 20.942C27.2787 21.586 27.022 22.118 26.5087 22.538C26.0047 22.958 25.244 23.168 24.2267 23.168C23.9187 23.168 23.6154 23.14 23.3167 23.084C23.018 23.028 22.738 22.9533 22.4767 22.86C22.2154 22.7667 21.9774 22.664 21.7627 22.552C21.548 22.4307 21.3707 22.3093 21.2307 22.188L21.7907 21.278C21.9027 21.39 22.052 21.5067 22.2387 21.628C22.4254 21.74 22.6307 21.8427 22.8547 21.936C23.0787 22.0293 23.3167 22.104 23.5687 22.16C23.83 22.216 24.0914 22.244 24.3527 22.244C24.6047 22.244 24.838 22.2253 25.0527 22.188C25.2767 22.1413 25.4727 22.076 25.6407 21.992C25.8087 21.8987 25.9394 21.782 26.0327 21.642C26.1354 21.4927 26.1867 21.3153 26.1867 21.11ZM33.5312 16H35.5192V20.774C35.5192 21.2313 35.5472 21.67 35.6032 22.09H36.5412V23H34.6792L34.6372 21.81H34.5812C34.3386 22.2113 34.0166 22.538 33.6152 22.79C33.2139 23.042 32.7286 23.168 32.1592 23.168C31.7299 23.168 31.3612 23.1167 31.0532 23.014C30.7546 22.9207 30.5072 22.7527 30.3112 22.51C30.1152 22.2673 29.9706 21.9453 29.8772 21.544C29.7839 21.1333 29.7372 20.6247 29.7372 20.018V16.938H28.7992V16H30.8292V19.794C30.8292 20.1767 30.8432 20.522 30.8712 20.83C30.9086 21.1287 30.9786 21.3853 31.0812 21.6C31.1839 21.8053 31.3332 21.964 31.5292 22.076C31.7346 22.1787 32.0052 22.23 32.3412 22.23C32.8266 22.23 33.2466 22.0713 33.6012 21.754C33.9652 21.4367 34.2406 21.04 34.4272 20.564V16.938H33.5312V16ZM41.7298 13.2H43.9978V20.606C43.9978 20.69 44.0024 20.7973 44.0118 20.928C44.0211 21.0493 44.0304 21.18 44.0397 21.32C44.0584 21.46 44.0771 21.6 44.0958 21.74C44.1144 21.8707 44.1331 21.9873 44.1518 22.09H45.0898V23H43.2278L43.0878 21.922H43.0318C42.8264 22.2767 42.5184 22.5753 42.1078 22.818C41.7064 23.0513 41.2398 23.168 40.7078 23.168C39.6531 23.168 38.8738 22.874 38.3698 22.286C37.8751 21.6887 37.6278 20.7647 37.6278 19.514C37.6278 18.926 37.7118 18.408 37.8798 17.96C38.0478 17.5027 38.2858 17.1247 38.5938 16.826C38.9111 16.518 39.2891 16.2847 39.7278 16.126C40.1664 15.9673 40.6564 15.888 41.1978 15.888C41.3938 15.888 41.5664 15.8927 41.7158 15.902C41.8744 15.9113 42.0191 15.9253 42.1498 15.944C42.2804 15.9627 42.4018 15.9907 42.5138 16.028C42.6351 16.056 42.7658 16.0887 42.9058 16.126V14.138H41.7298V13.2ZM40.8898 22.23C41.4591 22.23 41.9071 22.0853 42.2338 21.796C42.5604 21.4973 42.7844 21.054 42.9058 20.466V17.218C42.7004 17.078 42.4671 16.9753 42.2058 16.91C41.9538 16.8447 41.6178 16.812 41.1978 16.812C40.4511 16.812 39.8631 17.0313 39.4338 17.47C39.0044 17.8993 38.7898 18.5807 38.7898 19.514C38.7898 19.8967 38.8224 20.256 38.8878 20.592C38.9624 20.9187 39.0791 21.2033 39.2378 21.446C39.4058 21.6887 39.6251 21.88 39.8958 22.02C40.1664 22.16 40.4978 22.23 40.8898 22.23ZM46.0363 19.5C46.0363 18.3707 46.3303 17.4793 46.9183 16.826C47.5063 16.1633 48.3463 15.832 49.4383 15.832C50.0263 15.832 50.5303 15.93 50.9503 16.126C51.3796 16.3127 51.7343 16.5693 52.0143 16.896C52.2943 17.2227 52.4996 17.61 52.6303 18.058C52.7703 18.506 52.8403 18.9867 52.8403 19.5C52.8403 20.06 52.7656 20.5687 52.6163 21.026C52.4669 21.474 52.2476 21.8567 51.9583 22.174C51.6689 22.4913 51.3096 22.7387 50.8803 22.916C50.4603 23.084 49.9796 23.168 49.4383 23.168C48.8596 23.168 48.3556 23.0747 47.9263 22.888C47.4969 22.692 47.1423 22.4307 46.8623 22.104C46.5823 21.7773 46.3723 21.39 46.2323 20.942C46.1016 20.494 46.0363 20.0133 46.0363 19.5ZM47.1983 19.5C47.1983 19.8267 47.2356 20.1533 47.3103 20.48C47.3943 20.8067 47.5249 21.1007 47.7023 21.362C47.8796 21.6233 48.1083 21.8333 48.3883 21.992C48.6776 22.1507 49.0276 22.23 49.4383 22.23C50.1849 22.23 50.7449 22.0013 51.1183 21.544C51.5009 21.0773 51.6923 20.396 51.6923 19.5C51.6923 19.164 51.6503 18.8373 51.5663 18.52C51.4916 18.1933 51.3609 17.8993 51.1743 17.638C50.9969 17.3767 50.7636 17.1667 50.4743 17.008C50.1943 16.8493 49.8489 16.77 49.4383 16.77C48.6916 16.77 48.1316 16.9987 47.7583 17.456C47.3849 17.9133 47.1983 18.5947 47.1983 19.5ZM63.5393 16.546C63.9407 16.3127 64.3933 16.1447 64.8973 16.042C65.4013 15.9393 65.896 15.888 66.3813 15.888C66.8573 15.888 67.2447 15.9627 67.5433 16.112C67.8513 16.2613 68.0893 16.4573 68.2573 16.7C68.4347 16.9333 68.5513 17.204 68.6073 17.512C68.6727 17.8107 68.7053 18.114 68.7053 18.422C68.7053 18.7767 68.696 19.1547 68.6773 19.556C68.6587 19.9573 68.6447 20.3587 68.6353 20.76C68.6353 21.2267 68.6633 21.67 68.7193 22.09H69.6573V23H67.7953L67.6693 21.95H67.5993C67.5433 22.034 67.4593 22.1413 67.3473 22.272C67.2353 22.4027 67.086 22.5333 66.8993 22.664C66.722 22.7853 66.5027 22.8927 66.2413 22.986C65.98 23.0793 65.672 23.126 65.3173 23.126C64.6267 23.126 64.0807 22.9487 63.6793 22.594C63.278 22.2393 63.0773 21.754 63.0773 21.138C63.0773 20.662 63.18 20.2653 63.3853 19.948C63.6 19.6307 63.9033 19.388 64.2953 19.22C64.6873 19.052 65.1587 18.954 65.7093 18.926C66.2693 18.898 66.8947 18.9353 67.5853 19.038C67.632 18.6087 67.6367 18.254 67.5993 17.974C67.5713 17.6847 67.4967 17.456 67.3753 17.288C67.2633 17.12 67.1 17.0033 66.8853 16.938C66.68 16.8633 66.4233 16.826 66.1153 16.826C65.6953 16.826 65.294 16.8867 64.9113 17.008C64.5287 17.12 64.188 17.2367 63.8893 17.358L63.5393 16.546ZM65.5973 22.188C65.8587 22.188 66.1013 22.146 66.3253 22.062C66.5493 21.978 66.7453 21.8707 66.9133 21.74C67.0813 21.6093 67.2213 21.4693 67.3333 21.32C67.4453 21.1613 67.5293 21.012 67.5853 20.872V19.892C67.1 19.808 66.652 19.766 66.2413 19.766C65.8307 19.766 65.476 19.8127 65.1773 19.906C64.8787 19.99 64.6453 20.1253 64.4773 20.312C64.3093 20.4987 64.2253 20.7413 64.2253 21.04C64.2253 21.348 64.328 21.6187 64.5333 21.852C64.748 22.076 65.1027 22.188 65.5973 22.188ZM71.7659 18.45C71.7659 18.366 71.7612 18.2587 71.7519 18.128C71.7519 17.988 71.7472 17.848 71.7379 17.708C71.7285 17.5587 71.7145 17.414 71.6959 17.274C71.6865 17.134 71.6725 17.0127 71.6539 16.91H70.7159V16H72.5779L72.7179 16.98H72.7879C73.0399 16.6533 73.3572 16.3827 73.7399 16.168C74.1319 15.944 74.6079 15.832 75.1679 15.832C76.1665 15.832 76.9179 16.1073 77.4219 16.658C77.9259 17.2087 78.1779 18.1093 78.1779 19.36C78.1779 19.948 78.0892 20.48 77.9119 20.956C77.7439 21.4227 77.5012 21.8193 77.1839 22.146C76.8665 22.4727 76.4839 22.7247 76.0359 22.902C75.5879 23.0793 75.0932 23.168 74.5519 23.168C74.3559 23.168 74.1785 23.1587 74.0199 23.14C73.8705 23.1307 73.7305 23.112 73.5999 23.084C73.4785 23.0653 73.3572 23.0373 73.2359 23C73.1145 22.9627 72.9839 22.916 72.8439 22.86V25.8H71.7659V18.45ZM74.9859 16.854C74.7059 16.854 74.4399 16.9053 74.1879 17.008C73.9452 17.1107 73.7259 17.246 73.5299 17.414C73.3432 17.582 73.1892 17.7687 73.0679 17.974C72.9465 18.1793 72.8719 18.3847 72.8439 18.59V21.782C73.0492 21.922 73.2779 22.034 73.5299 22.118C73.7912 22.1927 74.1319 22.23 74.5519 22.23C75.2985 22.23 75.8959 21.9873 76.3439 21.502C76.7919 21.0073 77.0159 20.2887 77.0159 19.346C77.0159 18.5527 76.8572 17.9413 76.5399 17.512C76.2319 17.0733 75.7139 16.854 74.9859 16.854ZM79.2504 16H80.9164V14.614L82.0084 14.306V16H85.7464V16.938H82.0084V20.242C82.0084 20.9233 82.1717 21.4273 82.4984 21.754C82.8344 22.0807 83.3104 22.244 83.9264 22.244C84.3464 22.244 84.7104 22.1647 85.0184 22.006C85.3357 21.8473 85.6204 21.6747 85.8724 21.488L86.2364 22.314C85.9097 22.5753 85.5177 22.7853 85.0604 22.944C84.6124 23.1027 84.1504 23.182 83.6744 23.182C83.3011 23.182 82.9464 23.126 82.6104 23.014C82.2837 22.9113 81.9944 22.748 81.7424 22.524C81.4904 22.3 81.2897 22.0153 81.1404 21.67C80.9911 21.3153 80.9164 20.8953 80.9164 20.41V16.938H79.2504V16ZM97.0755 23V22.062H99.5115V16.938H97.0755V16H100.631V22.062H103.011V23H97.0755ZM99.1335 14.012C99.1335 13.76 99.2175 13.5453 99.3855 13.368C99.5535 13.1813 99.7681 13.088 100.029 13.088C100.3 13.088 100.524 13.1813 100.701 13.368C100.888 13.5453 100.981 13.76 100.981 14.012C100.981 14.2547 100.888 14.46 100.701 14.628C100.524 14.796 100.3 14.88 100.029 14.88C99.7681 14.88 99.5535 14.796 99.3855 14.628C99.2175 14.46 99.1335 14.2547 99.1335 14.012ZM105.302 18.45C105.302 18.366 105.297 18.2587 105.288 18.128C105.288 17.988 105.283 17.848 105.274 17.708C105.265 17.5587 105.251 17.414 105.232 17.274C105.223 17.134 105.209 17.0127 105.19 16.91H104.252V16H106.128L106.254 17.134H106.324C106.417 16.9753 106.539 16.8213 106.688 16.672C106.847 16.5133 107.029 16.3733 107.234 16.252C107.439 16.1213 107.668 16.0187 107.92 15.944C108.172 15.8693 108.438 15.832 108.718 15.832C109.147 15.832 109.525 15.8787 109.852 15.972C110.188 16.0653 110.463 16.2333 110.678 16.476C110.902 16.7093 111.07 17.0313 111.182 17.442C111.294 17.8433 111.35 18.3567 111.35 18.982V23H110.258V19.192C110.258 18.4173 110.132 17.834 109.88 17.442C109.628 17.05 109.171 16.854 108.508 16.854C108.265 16.854 108.027 16.9053 107.794 17.008C107.57 17.1013 107.365 17.2273 107.178 17.386C106.991 17.5447 106.828 17.7313 106.688 17.946C106.548 18.1513 106.445 18.3707 106.38 18.604V23H105.302V18.45ZM118.527 21.11C118.527 20.8113 118.41 20.5827 118.177 20.424C117.943 20.256 117.654 20.1253 117.309 20.032C116.963 19.9293 116.585 19.836 116.175 19.752C115.773 19.668 115.4 19.556 115.055 19.416C114.709 19.276 114.42 19.0893 114.187 18.856C113.953 18.6133 113.837 18.2773 113.837 17.848C113.837 17.4933 113.911 17.19 114.061 16.938C114.219 16.686 114.425 16.4807 114.677 16.322C114.929 16.154 115.223 16.0327 115.559 15.958C115.895 15.874 116.245 15.832 116.609 15.832C117.262 15.832 117.822 15.916 118.289 16.084C118.765 16.2427 119.143 16.4107 119.423 16.588L118.975 17.47C118.667 17.302 118.331 17.1433 117.967 16.994C117.612 16.8353 117.164 16.756 116.623 16.756C116.417 16.756 116.212 16.7793 116.007 16.826C115.811 16.8633 115.629 16.924 115.461 17.008C115.302 17.092 115.171 17.204 115.069 17.344C114.975 17.4747 114.929 17.638 114.929 17.834C114.929 18.0767 115.045 18.2633 115.279 18.394C115.512 18.5247 115.801 18.6367 116.147 18.73C116.492 18.814 116.865 18.898 117.267 18.982C117.677 19.0567 118.055 19.1687 118.401 19.318C118.746 19.4673 119.035 19.668 119.269 19.92C119.502 20.172 119.619 20.5127 119.619 20.942C119.619 21.586 119.362 22.118 118.849 22.538C118.345 22.958 117.584 23.168 116.567 23.168C116.259 23.168 115.955 23.14 115.657 23.084C115.358 23.028 115.078 22.9533 114.817 22.86C114.555 22.7667 114.317 22.664 114.103 22.552C113.888 22.4307 113.711 22.3093 113.571 22.188L114.131 21.278C114.243 21.39 114.392 21.5067 114.579 21.628C114.765 21.74 114.971 21.8427 115.195 21.936C115.419 22.0293 115.657 22.104 115.909 22.16C116.17 22.216 116.431 22.244 116.693 22.244C116.945 22.244 117.178 22.2253 117.393 22.188C117.617 22.1413 117.813 22.076 117.981 21.992C118.149 21.8987 118.279 21.782 118.373 21.642C118.475 21.4927 118.527 21.3153 118.527 21.11ZM121.223 16H122.889V14.614L123.981 14.306V16H127.719V16.938H123.981V20.242C123.981 20.9233 124.144 21.4273 124.471 21.754C124.807 22.0807 125.283 22.244 125.899 22.244C126.319 22.244 126.683 22.1647 126.991 22.006C127.308 21.8473 127.593 21.6747 127.845 21.488L128.209 22.314C127.882 22.5753 127.49 22.7853 127.033 22.944C126.585 23.1027 126.123 23.182 125.647 23.182C125.274 23.182 124.919 23.126 124.583 23.014C124.256 22.9113 123.967 22.748 123.715 22.524C123.463 22.3 123.262 22.0153 123.113 21.67C122.964 21.3153 122.889 20.8953 122.889 20.41V16.938H121.223V16ZM130.696 16.546C131.097 16.3127 131.55 16.1447 132.054 16.042C132.558 15.9393 133.052 15.888 133.538 15.888C134.014 15.888 134.401 15.9627 134.7 16.112C135.008 16.2613 135.246 16.4573 135.414 16.7C135.591 16.9333 135.708 17.204 135.764 17.512C135.829 17.8107 135.862 18.114 135.862 18.422C135.862 18.7767 135.852 19.1547 135.834 19.556C135.815 19.9573 135.801 20.3587 135.792 20.76C135.792 21.2267 135.82 21.67 135.876 22.09H136.814V23H134.952L134.826 21.95H134.756C134.7 22.034 134.616 22.1413 134.504 22.272C134.392 22.4027 134.242 22.5333 134.056 22.664C133.878 22.7853 133.659 22.8927 133.398 22.986C133.136 23.0793 132.828 23.126 132.474 23.126C131.783 23.126 131.237 22.9487 130.836 22.594C130.434 22.2393 130.234 21.754 130.234 21.138C130.234 20.662 130.336 20.2653 130.542 19.948C130.756 19.6307 131.06 19.388 131.452 19.22C131.844 19.052 132.315 18.954 132.866 18.926C133.426 18.898 134.051 18.9353 134.742 19.038C134.788 18.6087 134.793 18.254 134.756 17.974C134.728 17.6847 134.653 17.456 134.532 17.288C134.42 17.12 134.256 17.0033 134.042 16.938C133.836 16.8633 133.58 16.826 133.272 16.826C132.852 16.826 132.45 16.8867 132.068 17.008C131.685 17.12 131.344 17.2367 131.046 17.358L130.696 16.546ZM132.754 22.188C133.015 22.188 133.258 22.146 133.482 22.062C133.706 21.978 133.902 21.8707 134.07 21.74C134.238 21.6093 134.378 21.4693 134.49 21.32C134.602 21.1613 134.686 21.012 134.742 20.872V19.892C134.256 19.808 133.808 19.766 133.398 19.766C132.987 19.766 132.632 19.8127 132.334 19.906C132.035 19.99 131.802 20.1253 131.634 20.312C131.466 20.4987 131.382 20.7413 131.382 21.04C131.382 21.348 131.484 21.6187 131.69 21.852C131.904 22.076 132.259 22.188 132.754 22.188ZM138.558 13.2H140.882V20.648C140.882 21.2173 140.975 21.6187 141.162 21.852C141.358 22.0853 141.643 22.202 142.016 22.202C142.277 22.202 142.543 22.1507 142.814 22.048C143.085 21.9453 143.332 21.8007 143.556 21.614L144.06 22.356C143.911 22.4867 143.747 22.6033 143.57 22.706C143.393 22.8087 143.211 22.8973 143.024 22.972C142.837 23.0373 142.651 23.0887 142.464 23.126C142.277 23.1633 142.105 23.182 141.946 23.182C141.601 23.182 141.293 23.1353 141.022 23.042C140.751 22.958 140.523 22.818 140.336 22.622C140.159 22.426 140.023 22.1693 139.93 21.852C139.837 21.5253 139.79 21.124 139.79 20.648V14.138H138.558V13.2ZM146.953 13.2H149.277V20.648C149.277 21.2173 149.37 21.6187 149.557 21.852C149.753 22.0853 150.037 22.202 150.411 22.202C150.672 22.202 150.938 22.1507 151.209 22.048C151.479 21.9453 151.727 21.8007 151.951 21.614L152.455 22.356C152.305 22.4867 152.142 22.6033 151.965 22.706C151.787 22.8087 151.605 22.8973 151.419 22.972C151.232 23.0373 151.045 23.0887 150.859 23.126C150.672 23.1633 150.499 23.182 150.341 23.182C149.995 23.182 149.687 23.1353 149.417 23.042C149.146 22.958 148.917 22.818 148.731 22.622C148.553 22.426 148.418 22.1693 148.325 21.852C148.231 21.5253 148.185 21.124 148.185 20.648V14.138H146.953V13.2ZM166.99 21.642H167.144L169.342 16H170.56L167.606 23H166.374L163.364 16H164.652L166.99 21.642ZM172.626 23V22.062H175.062V16.938H172.626V16H176.182V22.062H178.562V23H172.626ZM174.684 14.012C174.684 13.76 174.768 13.5453 174.936 13.368C175.104 13.1813 175.319 13.088 175.58 13.088C175.851 13.088 176.075 13.1813 176.252 13.368C176.439 13.5453 176.532 13.76 176.532 14.012C176.532 14.2547 176.439 14.46 176.252 14.628C176.075 14.796 175.851 14.88 175.58 14.88C175.319 14.88 175.104 14.796 174.936 14.628C174.768 14.46 174.684 14.2547 174.684 14.012ZM183.219 23V18.338C183.219 18.142 183.209 17.9553 183.191 17.778C183.181 17.5913 183.149 17.428 183.093 17.288C183.046 17.1387 182.971 17.022 182.869 16.938C182.775 16.854 182.649 16.812 182.491 16.812C182.173 16.812 181.903 16.9427 181.679 17.204C181.464 17.4653 181.301 17.792 181.189 18.184V23H180.125V16H180.853L181.063 16.854H181.119C181.212 16.714 181.301 16.5833 181.385 16.462C181.478 16.3313 181.581 16.2193 181.693 16.126C181.814 16.0327 181.954 15.9627 182.113 15.916C182.271 15.86 182.472 15.832 182.715 15.832C182.855 15.832 182.999 15.8553 183.149 15.902C183.298 15.9393 183.433 16.0047 183.555 16.098C183.685 16.182 183.797 16.2987 183.891 16.448C183.984 16.5973 184.045 16.7793 184.073 16.994C184.287 16.63 184.525 16.3453 184.787 16.14C185.057 15.9347 185.426 15.832 185.893 15.832C186.201 15.832 186.448 15.8833 186.635 15.986C186.831 16.0887 186.98 16.238 187.083 16.434C187.195 16.6207 187.269 16.8493 187.307 17.12C187.353 17.3813 187.377 17.6753 187.377 18.002V23H186.313V18.24C186.313 18.044 186.303 17.862 186.285 17.694C186.266 17.5167 186.229 17.3627 186.173 17.232C186.126 17.1013 186.056 16.9987 185.963 16.924C185.879 16.8493 185.762 16.812 185.613 16.812C185.286 16.812 185.011 16.9427 184.787 17.204C184.563 17.4653 184.395 17.8387 184.283 18.324V23H183.219Z" fill="#D7D7D7"/>
</svg>
